# xmcd
#
# Track frame offsets:
#	150
#	16549
#	29324
#	40407
#	51107
#	63450
#	76725
#	89364
#	105707
#	120371
#	133499
#	147268
#	165327
#	180660
#
# Disc length: 2575 seconds
# Revision: 1
# Processed by: cddbd v1.5.2PL0 Copyright (c) Steve Scherf et al.
# Submitted via: dBpowerAMP V12.0
#
DISCID=af0a0d0e
DTITLE=Janie Fricke - Country Ladies
DYEAR=2006
DGENRE=Country
TTITLE0=Always Have Always Will
TTITLE1=Do Me With Love
TTITLE2=Don't Worry About Me Baby
TTITLE3=Down To My Last Broken Heart
TTITLE4=Ease To Please
TTITLE5=He's A Heartache
TTITLE6=If The Fall Don't Get You
TTITLE7=It Ain't Easy Being Easy
TTITLE8=Let's Stop Talkin' About It
TTITLE9=She's Single Again
TTITLE10=Somebody Else's Fire
TTITLE11=Tell Me A Lie
TTITLE12=The First Word In Memory
TTITLE13=Your Heart's Not In It
EXTD=
EXTT0=
EXTT1=
EXTT2=
EXTT3=
EXTT4=
EXTT5=
EXTT6=
EXTT7=
EXTT8=
EXTT9=
EXTT10=
EXTT11=
EXTT12=
EXTT13=
PLAYORDER=
